# xmcd
# 
# Track frame offsets:
#     150
#     19999
#     33456
#     55317
#     74993
#     92013
#     106980
#     123149
#     139549
#     162042
#     177687
#     198329
#     219285
#     240419
# 
# Disc length: 3397
# 
# Revision: 1
# Processed by: cddbd v1.5.2PL0 Copyright (c) Steve Scherf et al.
# Submitted via: fre:ac v1.0.17
# 
DISCID=c40d430e
DTITLE=Jack McGuire - A Walk In the Irish Rain
DYEAR=2008
DGENRE=Country
TTITLE0=Roseville Fair
TTITLE1=A Walk In the Irish Rain
TTITLE2=The Fields of Athernry
TTITLE3=Grace
TTITLE4=Streets of London
TTITLE5=Sean South
TTITLE6=Paddy Reilly
TTITLE7=Paradise
TTITLE8=When New York Was Irish
TTITLE9=Steve McDonnell's Wake
TTITLE10=Song For the Mira
TTITLE11=Red Haired Mary
TTITLE12=An Irish Blessing
TTITLE13=Two Sweethearts
EXTD=
EXTT0=
EXTT1=
EXTT2=
EXTT3=
EXTT4=
EXTT5=
EXTT6=
EXTT7=
EXTT8=
EXTT9=
EXTT10=
EXTT11=
EXTT12=
EXTT13=
PLAYORDER=
